<svg width="20" height="20" viewBox="0 0 20 20" fill="none" xmlns="http://www.w3.org/2000/svg">
<path d="M15.8413 16.8969H4.15865V5.21417H5.45673V2.61801H2.86058C2.14404 2.61801 1.5625 3.19955 1.5625 3.91609V18.1949C1.5625 18.9128 2.14404 19.493 2.86058 19.493H17.1394C17.8573 19.493 18.4375 18.9128 18.4375 18.1949V10.4467H15.8413V16.8969Z" fill="#FFCC00"/>
<circle cx="10" cy="11.0555" r="3.73197" fill="#FFCC00"/>
<circle cx="10.0001" cy="11.0554" r="3.28576" fill="#F35921"/>
<path d="M7.62755 3.29748L11.2919 0.559389C11.4293 0.455342 11.6162 0.438913 11.771 0.516492C11.9268 0.594072 12.0248 0.751968 12.0248 0.924468V2.29351H13.3989C16.1774 2.29351 18.4374 4.54514 18.4374 7.31335C18.4374 7.5251 18.2908 7.70946 18.0847 7.75784C18.0499 7.76605 18.0142 7.7697 17.9794 7.7697C17.809 7.7697 17.6487 7.67478 17.5699 7.5178L17.4618 7.30331C16.7591 5.90232 15.3465 5.03161 13.7745 5.03161H12.0248V6.40065C12.0248 6.57315 11.9268 6.73105 11.7719 6.80863C11.6171 6.88621 11.4302 6.86978 11.2919 6.76573L7.62755 4.02764C7.51213 3.94185 7.44434 3.80585 7.44434 3.66256C7.44434 3.51927 7.51213 3.38328 7.62755 3.29748Z" fill="#F35921"/>
</svg>
